<svg xmlns="http://www.w3.org/2000/svg" width="70.241" height="70.241" viewBox="0 0 70.241 70.241">
  <g id="Group_11" data-name="Group 11" transform="translate(-54 -21)">
    <g id="Group_2" data-name="Group 2" transform="translate(-115 -273)">
      <g id="Group_1" data-name="Group 1" transform="translate(169 294)">
        <g id="boxing-gloves" transform="translate(0 0)">
          <path id="Path_1" data-name="Path 1" d="M13.7,39.816a15.382,15.382,0,0,1,9.664-16.837l2.011-.769A19.408,19.408,0,0,1,38.539,7.281,15.413,15.413,0,0,0,28.6.8,49.931,49.931,0,0,0,20.954,0a50.016,50.016,0,0,0-7.786.832A15.257,15.257,0,0,0,.968,13.247a69.121,69.121,0,0,0,0,23.046A15.113,15.113,0,0,0,6.937,46h8.089C14.949,45.734,14,41.614,13.7,39.816Z" transform="translate(0 0)" fill="#c60000"/>
          <path id="Path_2" data-name="Path 2" d="M127.373,372.27a26.8,26.8,0,0,1-6.062-6.993v9.714h11.953A14.263,14.263,0,0,1,127.373,372.27Z" transform="translate(-104.668 -315.165)"/>
          <path id="Path_3" data-name="Path 3" d="M55,365.277H59.98v9.714H55Z" transform="translate(-47.452 -315.165)"/>
          <path id="Path_4" data-name="Path 4" d="M166.955,73.387a47.606,47.606,0,0,0-15.355-.046l-.076.014a15.412,15.412,0,0,0-12.4,12.585,42.574,42.574,0,0,0,.927,18.75h-4.093a46.172,46.172,0,0,1-1.294-15.235,11.381,11.381,0,0,0-7.16,12.467c.284,1.7.637,3.413,1.05,5.094a17.94,17.94,0,0,0,6.454,9.7,13.581,13.581,0,0,0,5.418,1.841h32.757a15.114,15.114,0,0,0,5.969-9.7,69.121,69.121,0,0,0,0-23.046,15.176,15.176,0,0,0-12.2-12.415Z" transform="translate(-109.882 -62.76)" fill="#c60000"/>
          <path id="Path_5" data-name="Path 5" d="M238.358,436.672h20.9v10.334h-20.9Z" transform="translate(-205.658 -376.765)"/>
          <path id="Path_6" data-name="Path 6" d="M420.682,436.672h4.983v10.334h-4.983Z" transform="translate(-362.969 -376.765)"/>
        </g>
      </g>
    </g>
  </g>
</svg>
