<svg xmlns="http://www.w3.org/2000/svg" width="21.465" height="25.245" viewBox="0 0 21.465 25.245">
  <path id="apple-brands" d="M21.015,44.8a5.047,5.047,0,0,1,2.7-4.585,5.809,5.809,0,0,0-4.58-2.411c-1.919-.151-4.017,1.119-4.785,1.119-.811,0-2.671-1.065-4.131-1.065C7.206,37.9,4,40.262,4,45.057a13.476,13.476,0,0,0,.779,4.39c.692,1.984,3.19,6.85,5.8,6.769,1.362-.032,2.325-.968,4.1-.968,1.719,0,2.611.968,4.131.968,2.628-.038,4.888-4.461,5.547-6.45A5.36,5.36,0,0,1,21.015,44.8Zm-3.06-8.878a5.092,5.092,0,0,0,1.3-3.92,5.733,5.733,0,0,0-3.671,1.887A5.172,5.172,0,0,0,14.2,37.774,4.541,4.541,0,0,0,17.955,35.92Z" transform="translate(-3.5 -31.472)" fill="#fff" stroke="#000" stroke-width="1"/>
</svg>
