<svg xmlns="http://www.w3.org/2000/svg" width="319.476" height="262.842" viewBox="0 0 319.476 262.842">
  <g id="Group_27" data-name="Group 27" transform="translate(-1438.805 -1479.692)">
    <g id="fight" transform="matrix(0.719, 0.695, -0.695, 0.719, 1595.755, 1453.538)">
      <path id="Path_14" data-name="Path 14" d="M116.284,312.621,50.4,246.74a4.688,4.688,0,0,0-6.663,0l-35.7,35.7a27.512,27.512,0,0,0,0,38.875h0L41.71,354.982a27.512,27.512,0,0,0,38.875,0h0l35.654-35.654a4.7,4.7,0,0,0,.044-6.707Z" transform="translate(0 -137.086)" fill="#455a64"/>
      <g id="Group_22" data-name="Group 22" transform="translate(28.251 150.692)">
        <path id="Path_15" data-name="Path 15" d="M87.543,412.3a4.857,4.857,0,0,1-3.354-1.368L65.348,392.087a4.712,4.712,0,0,1,6.663-6.663l18.842,18.842a4.727,4.727,0,0,1,0,6.663A4.676,4.676,0,0,1,87.543,412.3Z" transform="translate(-64.023 -365.302)" fill="#cfd8dc"/>
        <path id="Path_16" data-name="Path 16" d="M118.342,379.1a4.857,4.857,0,0,1-3.354-1.368L86.748,349.487a4.712,4.712,0,0,1,6.663-6.663l28.241,28.241a4.727,4.727,0,0,1,0,6.663A4.87,4.87,0,0,1,118.342,379.1Z" transform="translate(-75.98 -341.5)" fill="#cfd8dc"/>
      </g>
      <path id="Path_17" data-name="Path 17" d="M259.492,122.362h0v-4.722a4.663,4.663,0,0,0,3.177-1.191A38.48,38.48,0,0,0,273.612,89.4c0-17.033-29.829-89.4-89.444-89.4C125.039,0,85.325,81.854,85.325,98.843c0,23.917,56.482,84.723,84.723,84.723,27.711,0,94.122-16.238,94.122-56.482A4.661,4.661,0,0,0,259.492,122.362Z" transform="translate(-47.674 0)" fill="#f44336"/>
      <g id="Group_23" data-name="Group 23" transform="translate(94.133 28.223)">
        <path id="Path_18" data-name="Path 18" d="M356.912,248.482a4.857,4.857,0,0,1-3.354-1.368,33.754,33.754,0,0,1-6.84-36.978A27.027,27.027,0,0,1,371.032,192c22.593,0,37.64,25.505,37.64,42.361a4.722,4.722,0,1,1-9.443,0c0-12.973-12.135-32.962-28.241-32.962a18.027,18.027,0,0,0-15.577,12.311,24.557,24.557,0,0,0,4.81,26.741,4.688,4.688,0,0,1,0,6.663A4.527,4.527,0,0,1,356.912,248.482Z" transform="translate(-286.31 -135.5)" fill="#c62828"/>
        <path id="Path_19" data-name="Path 19" d="M274.528,167.542c-20.7,0-61.2-46.73-61.2-61.2a68.174,68.174,0,0,1,21-41.655,4.7,4.7,0,0,1,5.03,7.943,61.325,61.325,0,0,0-16.636,33.668c0,8.3,35.522,51.76,51.76,51.76a4.727,4.727,0,0,1,4.722,4.722A4.672,4.672,0,0,1,274.528,167.542Z" transform="translate(-213.325 -63.96)" fill="#c62828"/>
      </g>
      <path id="Path_20" data-name="Path 20" d="M61.27,363.1a27.34,27.34,0,0,1-19.416-8.031L8.142,321.352a27.512,27.512,0,0,1,0-38.875h0L43.8,246.823a4.712,4.712,0,0,1,6.663,6.663l-35.654,35.7a18.057,18.057,0,0,0,0,25.549h0L48.474,348.4a18.471,18.471,0,0,0,25.549,0l35.654-35.654a4.712,4.712,0,0,1,6.663,6.663L80.686,355.065A27.416,27.416,0,0,1,61.27,363.1Z" transform="translate(-0.056 -137.169)"/>
      <path id="Path_21" data-name="Path 21" d="M87.543,412.3a4.857,4.857,0,0,1-3.354-1.368L65.348,392.087a4.712,4.712,0,0,1,6.663-6.663l18.842,18.842a4.727,4.727,0,0,1,0,6.663A4.676,4.676,0,0,1,87.543,412.3Z" transform="translate(-35.772 -214.611)"/>
      <path id="Path_22" data-name="Path 22" d="M118.342,379.1a4.857,4.857,0,0,1-3.354-1.368L86.748,349.487a4.712,4.712,0,0,1,6.663-6.663l28.241,28.241a4.727,4.727,0,0,1,0,6.663A4.87,4.87,0,0,1,118.342,379.1Z" transform="translate(-47.729 -190.808)"/>
      <path id="Path_23" data-name="Path 23" d="M170.048,183.566c-28.241,0-84.723-60.806-84.723-84.723C85.325,81.854,125.039,0,184.168,0c59.615,0,89.444,72.367,89.444,89.444a38.3,38.3,0,0,1-10.943,27.005l-.132.088a37.051,37.051,0,0,1,1.633,10.546C264.213,167.327,197.759,183.566,170.048,183.566ZM184.168,9.4c-53.216,0-89.444,78.324-89.444,89.444,0,17.3,50.7,75.324,75.324,75.324,23.343,0,84.723-14.473,84.723-47.083,0-12.973-12.135-32.962-28.241-32.962a18.027,18.027,0,0,0-15.577,12.311,24.557,24.557,0,0,0,4.81,26.741,4.712,4.712,0,0,1-6.663,6.663,33.754,33.754,0,0,1-6.84-36.978,26.921,26.921,0,0,1,24.314-18.092,37.937,37.937,0,0,1,31.992,22.107,29.471,29.471,0,0,0,5.648-17.43C264.213,76.427,236.325,9.4,184.168,9.4Z" transform="translate(-47.674 0)"/>
      <path id="Path_24" data-name="Path 24" d="M274.528,167.542c-20.7,0-61.2-46.73-61.2-61.2a68.174,68.174,0,0,1,21-41.655,4.7,4.7,0,0,1,5.03,7.943,61.325,61.325,0,0,0-16.636,33.668c0,8.3,35.522,51.76,51.76,51.76a4.727,4.727,0,0,1,4.722,4.722A4.672,4.672,0,0,1,274.528,167.542Z" transform="translate(-119.192 -35.737)"/>
      <path id="Path_25" data-name="Path 25" d="M222.978,104.222a4.68,4.68,0,0,1-4.236-2.692s-3.574-7.546-4.368-8.825a6.5,6.5,0,0,1-.309-4.854c1.456-2.824,4.986-2.383,4.986-2.383,2.648.441,2.648.441,8.163,12.047a4.708,4.708,0,0,1-2.206,6.266A5.415,5.415,0,0,1,222.978,104.222Z" transform="translate(-119.402 -47.74)"/>
    </g>
    <path id="sort-down-solid" d="M3.16,0H34.409a3.155,3.155,0,0,1,2.232,5.383L21.016,21.008a3.138,3.138,0,0,1-4.451,0L.928,5.383A3.155,3.155,0,0,1,3.16,0Z" transform="translate(1667.472 1628.729) rotate(-90)" stroke="#000" stroke-width="2"/>
    <g id="Rectangle_35" data-name="Rectangle 35" transform="translate(1648 1602)" stroke="#000" stroke-width="1">
      <rect width="23" height="16" stroke="none"/>
      <rect x="0.5" y="0.5" width="22" height="15" fill="none"/>
    </g>
  </g>
</svg>
